<mxfile host="app.diagrams.net" modified="2023-10-02T08:04:14.053Z" agent="Mozilla/5.0 (Windows NT 10.0; Win64; x64) AppleWebKit/537.36 (KHTML, like Gecko) Chrome/117.0.0.0 Safari/537.36 Edg/117.0.2045.47" etag="oY3sB-nvVolMt41JCgBt" version="22.0.0" type="github">
  <diagram name="페이지-1" id="rc60Dlm98mjPJ1KIME4D">
    <mxGraphModel dx="1188" dy="661" grid="1" gridSize="10" guides="1" tooltips="1" connect="1" arrows="1" fold="1" page="1" pageScale="1" pageWidth="827" pageHeight="1169" math="0" shadow="0">
      <root>
        <mxCell id="0" />
        <mxCell id="1" parent="0" />
        <mxCell id="GB_iqFDCNRAorK9fjn7n-1" value="이용자&lt;br&gt;" style="shape=umlActor;verticalLabelPosition=bottom;verticalAlign=top;html=1;outlineConnect=0;" vertex="1" parent="1">
          <mxGeometry x="50" y="290" width="30" height="60" as="geometry" />
        </mxCell>
        <mxCell id="GB_iqFDCNRAorK9fjn7n-2" value="게시판 서비스" style="shape=umlFrame;whiteSpace=wrap;html=1;pointerEvents=0;width=100;height=20;" vertex="1" parent="1">
          <mxGeometry x="130" y="100" width="560" height="520" as="geometry" />
        </mxCell>
        <mxCell id="GB_iqFDCNRAorK9fjn7n-3" value="회원가입" style="rounded=1;whiteSpace=wrap;html=1;arcSize=40;fontColor=#000000;fillColor=#ffffc0;strokeColor=#ff0000;" vertex="1" parent="1">
          <mxGeometry x="170" y="250" width="120" height="40" as="geometry" />
        </mxCell>
        <mxCell id="GB_iqFDCNRAorK9fjn7n-24" style="rounded=0;orthogonalLoop=1;jettySize=auto;html=1;entryX=0.5;entryY=1;entryDx=0;entryDy=0;dashed=1;exitX=0.961;exitY=0.142;exitDx=0;exitDy=0;exitPerimeter=0;" edge="1" parent="1" source="GB_iqFDCNRAorK9fjn7n-5" target="GB_iqFDCNRAorK9fjn7n-7">
          <mxGeometry relative="1" as="geometry" />
        </mxCell>
        <mxCell id="GB_iqFDCNRAorK9fjn7n-5" value="게시판 보기" style="rounded=1;whiteSpace=wrap;html=1;arcSize=40;fontColor=#000000;fillColor=#ffffc0;strokeColor=#ff0000;" vertex="1" parent="1">
          <mxGeometry x="170" y="330" width="120" height="40" as="geometry" />
        </mxCell>
        <mxCell id="GB_iqFDCNRAorK9fjn7n-25" style="rounded=0;orthogonalLoop=1;jettySize=auto;html=1;entryX=0.5;entryY=1;entryDx=0;entryDy=0;dashed=1;exitX=0.947;exitY=0.058;exitDx=0;exitDy=0;exitPerimeter=0;" edge="1" parent="1" source="GB_iqFDCNRAorK9fjn7n-6" target="GB_iqFDCNRAorK9fjn7n-7">
          <mxGeometry relative="1" as="geometry" />
        </mxCell>
        <mxCell id="GB_iqFDCNRAorK9fjn7n-6" value="게시글 보기" style="rounded=1;whiteSpace=wrap;html=1;arcSize=40;fontColor=#000000;fillColor=#ffffc0;strokeColor=#ff0000;" vertex="1" parent="1">
          <mxGeometry x="170" y="490" width="120" height="40" as="geometry" />
        </mxCell>
        <mxCell id="GB_iqFDCNRAorK9fjn7n-19" style="rounded=0;orthogonalLoop=1;jettySize=auto;html=1;endArrow=classic;endFill=1;dashed=1;" edge="1" parent="1" source="GB_iqFDCNRAorK9fjn7n-7" target="GB_iqFDCNRAorK9fjn7n-8">
          <mxGeometry relative="1" as="geometry" />
        </mxCell>
        <mxCell id="GB_iqFDCNRAorK9fjn7n-21" value="&amp;lt;&amp;lt;include&amp;gt;&amp;gt;" style="edgeLabel;html=1;align=center;verticalAlign=middle;resizable=0;points=[];" vertex="1" connectable="0" parent="GB_iqFDCNRAorK9fjn7n-19">
          <mxGeometry x="-0.05" y="1" relative="1" as="geometry">
            <mxPoint x="13" y="1" as="offset" />
          </mxGeometry>
        </mxCell>
        <mxCell id="GB_iqFDCNRAorK9fjn7n-7" value="회원 로그인" style="rounded=1;whiteSpace=wrap;html=1;arcSize=40;fontColor=#000000;fillColor=#ffffc0;strokeColor=#ff0000;" vertex="1" parent="1">
          <mxGeometry x="260" y="130" width="120" height="40" as="geometry" />
        </mxCell>
        <mxCell id="GB_iqFDCNRAorK9fjn7n-8" value="인증" style="rounded=1;whiteSpace=wrap;html=1;arcSize=40;fontColor=#000000;fillColor=#ffffc0;strokeColor=#ff0000;" vertex="1" parent="1">
          <mxGeometry x="500" y="130" width="120" height="40" as="geometry" />
        </mxCell>
        <mxCell id="GB_iqFDCNRAorK9fjn7n-20" style="rounded=0;orthogonalLoop=1;jettySize=auto;html=1;entryX=1;entryY=0.5;entryDx=0;entryDy=0;endArrow=classic;endFill=1;dashed=1;" edge="1" parent="1" source="GB_iqFDCNRAorK9fjn7n-9" target="GB_iqFDCNRAorK9fjn7n-7">
          <mxGeometry relative="1" as="geometry" />
        </mxCell>
        <mxCell id="GB_iqFDCNRAorK9fjn7n-22" value="&amp;lt;&amp;lt;extend&amp;gt;&amp;gt;" style="edgeLabel;html=1;align=center;verticalAlign=middle;resizable=0;points=[];" vertex="1" connectable="0" parent="GB_iqFDCNRAorK9fjn7n-20">
          <mxGeometry x="-0.1096" relative="1" as="geometry">
            <mxPoint y="1" as="offset" />
          </mxGeometry>
        </mxCell>
        <mxCell id="GB_iqFDCNRAorK9fjn7n-9" value="로그인 실패" style="rounded=1;whiteSpace=wrap;html=1;arcSize=40;fontColor=#000000;fillColor=#ffffc0;strokeColor=#ff0000;" vertex="1" parent="1">
          <mxGeometry x="500" y="200" width="120" height="40" as="geometry" />
        </mxCell>
        <mxCell id="GB_iqFDCNRAorK9fjn7n-28" style="rounded=0;orthogonalLoop=1;jettySize=auto;html=1;entryX=1;entryY=0.5;entryDx=0;entryDy=0;dashed=1;" edge="1" parent="1" source="GB_iqFDCNRAorK9fjn7n-10" target="GB_iqFDCNRAorK9fjn7n-5">
          <mxGeometry relative="1" as="geometry" />
        </mxCell>
        <mxCell id="GB_iqFDCNRAorK9fjn7n-10" value="게시판 정렬" style="rounded=1;whiteSpace=wrap;html=1;arcSize=40;fontColor=#000000;fillColor=#ffffc0;strokeColor=#ff0000;" vertex="1" parent="1">
          <mxGeometry x="360" y="290" width="120" height="40" as="geometry" />
        </mxCell>
        <mxCell id="GB_iqFDCNRAorK9fjn7n-29" style="rounded=0;orthogonalLoop=1;jettySize=auto;html=1;entryX=1;entryY=0.75;entryDx=0;entryDy=0;dashed=1;" edge="1" parent="1" source="GB_iqFDCNRAorK9fjn7n-11" target="GB_iqFDCNRAorK9fjn7n-5">
          <mxGeometry relative="1" as="geometry" />
        </mxCell>
        <mxCell id="GB_iqFDCNRAorK9fjn7n-11" value="게시판 검색" style="rounded=1;whiteSpace=wrap;html=1;arcSize=40;fontColor=#000000;fillColor=#ffffc0;strokeColor=#ff0000;" vertex="1" parent="1">
          <mxGeometry x="360" y="380" width="120" height="40" as="geometry" />
        </mxCell>
        <mxCell id="GB_iqFDCNRAorK9fjn7n-30" style="rounded=0;orthogonalLoop=1;jettySize=auto;html=1;entryX=1;entryY=0.5;entryDx=0;entryDy=0;dashed=1;" edge="1" parent="1" source="GB_iqFDCNRAorK9fjn7n-12" target="GB_iqFDCNRAorK9fjn7n-6">
          <mxGeometry relative="1" as="geometry" />
        </mxCell>
        <mxCell id="GB_iqFDCNRAorK9fjn7n-12" value="게시글 쓰기,수정,삭제" style="rounded=1;whiteSpace=wrap;html=1;arcSize=40;fontColor=#000000;fillColor=#ffffc0;strokeColor=#ff0000;" vertex="1" parent="1">
          <mxGeometry x="360" y="460" width="120" height="40" as="geometry" />
        </mxCell>
        <mxCell id="GB_iqFDCNRAorK9fjn7n-31" style="rounded=0;orthogonalLoop=1;jettySize=auto;html=1;entryX=1;entryY=0.5;entryDx=0;entryDy=0;dashed=1;" edge="1" parent="1" source="GB_iqFDCNRAorK9fjn7n-13" target="GB_iqFDCNRAorK9fjn7n-6">
          <mxGeometry relative="1" as="geometry" />
        </mxCell>
        <mxCell id="GB_iqFDCNRAorK9fjn7n-13" value="댓글 보기, 쓰기, 수정, 삭제" style="rounded=1;whiteSpace=wrap;html=1;arcSize=40;fontColor=#000000;fillColor=#ffffc0;strokeColor=#ff0000;" vertex="1" parent="1">
          <mxGeometry x="360" y="525" width="120" height="40" as="geometry" />
        </mxCell>
        <mxCell id="GB_iqFDCNRAorK9fjn7n-14" style="rounded=0;orthogonalLoop=1;jettySize=auto;html=1;entryX=1;entryY=0.3333333333333333;entryDx=0;entryDy=0;entryPerimeter=0;endArrow=none;endFill=0;" edge="1" parent="1" source="GB_iqFDCNRAorK9fjn7n-3" target="GB_iqFDCNRAorK9fjn7n-1">
          <mxGeometry relative="1" as="geometry" />
        </mxCell>
        <mxCell id="GB_iqFDCNRAorK9fjn7n-15" style="rounded=0;orthogonalLoop=1;jettySize=auto;html=1;entryX=1;entryY=0.3333333333333333;entryDx=0;entryDy=0;entryPerimeter=0;endArrow=none;endFill=0;exitX=0;exitY=0.5;exitDx=0;exitDy=0;" edge="1" parent="1" source="GB_iqFDCNRAorK9fjn7n-7" target="GB_iqFDCNRAorK9fjn7n-1">
          <mxGeometry relative="1" as="geometry" />
        </mxCell>
        <mxCell id="GB_iqFDCNRAorK9fjn7n-16" style="rounded=0;orthogonalLoop=1;jettySize=auto;html=1;entryX=1;entryY=0.3333333333333333;entryDx=0;entryDy=0;entryPerimeter=0;endArrow=none;endFill=0;exitX=0;exitY=0.5;exitDx=0;exitDy=0;" edge="1" parent="1" source="GB_iqFDCNRAorK9fjn7n-5" target="GB_iqFDCNRAorK9fjn7n-1">
          <mxGeometry relative="1" as="geometry">
            <mxPoint x="180" y="296" as="sourcePoint" />
            <mxPoint x="90" y="320" as="targetPoint" />
          </mxGeometry>
        </mxCell>
        <mxCell id="GB_iqFDCNRAorK9fjn7n-17" style="rounded=0;orthogonalLoop=1;jettySize=auto;html=1;entryX=1;entryY=0.3333333333333333;entryDx=0;entryDy=0;entryPerimeter=0;endArrow=none;endFill=0;exitX=0;exitY=0.5;exitDx=0;exitDy=0;" edge="1" parent="1" source="GB_iqFDCNRAorK9fjn7n-6" target="GB_iqFDCNRAorK9fjn7n-1">
          <mxGeometry relative="1" as="geometry">
            <mxPoint x="190" y="306" as="sourcePoint" />
            <mxPoint x="100" y="330" as="targetPoint" />
          </mxGeometry>
        </mxCell>
      </root>
    </mxGraphModel>
  </diagram>
</mxfile>
